<svg width="24" height="25" viewBox="0 0 24 25" fill="none" xmlns="http://www.w3.org/2000/svg">
<g id="vuesax/linear/colorfilter">
<g id="colorfilter">
<path id="Vector" d="M14 16.9336C14 18.7036 13.23 20.3036 12 21.3936C10.94 22.3536 9.54 22.9336 8 22.9336C4.69 22.9336 2 20.2436 2 16.9336C2 14.1736 3.88 11.8336 6.42 11.1436C7.11 12.8836 8.59 14.2236 10.42 14.7236C10.92 14.8636 11.45 14.9336 12 14.9336C12.55 14.9336 13.08 14.8636 13.58 14.7236C13.85 15.4036 14 16.1536 14 16.9336Z" stroke="#FFBF5D" stroke-width="1.5" stroke-linecap="round" stroke-linejoin="round"/>
<path id="Vector_2" d="M18 8.93359C18 9.71359 17.85 10.4636 17.58 11.1436C16.89 12.8836 15.41 14.2236 13.58 14.7236C13.08 14.8636 12.55 14.9336 12 14.9336C11.45 14.9336 10.92 14.8636 10.42 14.7236C8.59 14.2236 7.11 12.8836 6.42 11.1436C6.15 10.4636 6 9.71359 6 8.93359C6 5.62359 8.69 2.93359 12 2.93359C15.31 2.93359 18 5.62359 18 8.93359Z" stroke="#FFBF5D" stroke-width="1.5" stroke-linecap="round" stroke-linejoin="round"/>
<path id="Vector_3" d="M22 16.9336C22 20.2436 19.31 22.9336 16 22.9336C14.46 22.9336 13.06 22.3536 12 21.3936C13.23 20.3036 14 18.7036 14 16.9336C14 16.1536 13.85 15.4036 13.58 14.7236C15.41 14.2236 16.89 12.8836 17.58 11.1436C20.12 11.8336 22 14.1736 22 16.9336Z" stroke="#FFBF5D" stroke-width="1.5" stroke-linecap="round" stroke-linejoin="round"/>
</g>
</g>
</svg>
