<svg width="22" height="22" viewBox="0 0 22 22" fill="none" xmlns="http://www.w3.org/2000/svg">
<g id="Group 48096638">
<g id="Vector">
<path d="M13.228 5.28341C13.4026 5.24067 13.5888 5.2193 13.7751 5.2193C14.6829 5.2193 15.486 5.78565 15.7304 6.58708C15.7769 6.76874 15.8002 6.9504 15.8002 7.13206L12.0409 8.07241C11.9361 7.92281 11.8546 7.76252 11.7965 7.60223C11.5171 6.58708 12.134 5.56124 13.228 5.28341Z" fill="#FFBF5D"/>
<path d="M5.93047 7.12137C6.10506 7.06794 6.27964 7.06794 6.4775 7.06794C7.38533 7.06794 8.18841 7.60223 8.43283 8.43573C8.47938 8.6067 8.50266 8.78836 8.50266 8.97002L4.74331 9.91037C4.63856 9.73939 4.53381 9.58979 4.4989 9.41882C4.20793 8.42504 4.84806 7.3992 5.93047 7.12137Z" fill="#FFBF5D"/>
<path d="M5.80245 12.6994L16.4287 10.0172C16.0097 12.1437 14.3104 13.8748 12.0409 14.4518C9.77129 15.0182 7.33878 14.3343 5.80245 12.6994Z" fill="#FFBF5D"/>
</g>
<path id="Vector_2" d="M8 20.9336H14L21 13.9336V7.93359C21 2.93359 19 0.933594 14 0.933594H8C3 0.933594 1 2.93359 1 7.93359V13.9336C1 18.9336 3 20.9336 8 20.9336Z" stroke="#FFBF5D" stroke-width="1.5" stroke-linecap="round" stroke-linejoin="round"/>
<path id="Rectangle 4365" d="M15.5718 15.505C18.1424 12.9343 20.7148 13.7903 20.7148 13.7903L13.8576 20.6475C13.8576 20.6475 13.0013 18.0758 15.5718 15.505Z" fill="#FFBF5D"/>
</g>
</svg>
