<svg width="24" height="25" viewBox="0 0 24 25" fill="none" xmlns="http://www.w3.org/2000/svg">
<g id="transform">
<path id="Icon" d="M19 7.93359V17.9336M5 7.93359V17.9336M17 5.93359L7 5.93359M17 19.9336H7M4.6 7.93359H5.4C5.96005 7.93359 6.24008 7.93359 6.45399 7.8246C6.64215 7.72873 6.79513 7.57575 6.89101 7.38758C7 7.17367 7 6.89365 7 6.33359V5.53359C7 4.97354 7 4.69351 6.89101 4.4796C6.79513 4.29144 6.64215 4.13846 6.45399 4.04259C6.24008 3.93359 5.96005 3.93359 5.4 3.93359H4.6C4.03995 3.93359 3.75992 3.93359 3.54601 4.04259C3.35785 4.13846 3.20487 4.29144 3.10899 4.4796C3 4.69351 3 4.97354 3 5.53359V6.33359C3 6.89365 3 7.17367 3.10899 7.38758C3.20487 7.57575 3.35785 7.72873 3.54601 7.8246C3.75992 7.93359 4.03995 7.93359 4.6 7.93359ZM4.6 21.9336H5.4C5.96005 21.9336 6.24008 21.9336 6.45399 21.8246C6.64215 21.7287 6.79513 21.5757 6.89101 21.3876C7 21.1737 7 20.8936 7 20.3336V19.5336C7 18.9735 7 18.6935 6.89101 18.4796C6.79513 18.2914 6.64215 18.1385 6.45399 18.0426C6.24008 17.9336 5.96005 17.9336 5.4 17.9336H4.6C4.03995 17.9336 3.75992 17.9336 3.54601 18.0426C3.35785 18.1385 3.20487 18.2914 3.10899 18.4796C3 18.6935 3 18.9735 3 19.5336V20.3336C3 20.8936 3 21.1737 3.10899 21.3876C3.20487 21.5757 3.35785 21.7287 3.54601 21.8246C3.75992 21.9336 4.03995 21.9336 4.6 21.9336ZM18.6 7.93359H19.4C19.9601 7.93359 20.2401 7.93359 20.454 7.8246C20.6422 7.72873 20.7951 7.57575 20.891 7.38758C21 7.17367 21 6.89365 21 6.33359V5.53359C21 4.97354 21 4.69351 20.891 4.4796C20.7951 4.29144 20.6422 4.13846 20.454 4.04259C20.2401 3.93359 19.9601 3.93359 19.4 3.93359H18.6C18.0399 3.93359 17.7599 3.93359 17.546 4.04259C17.3578 4.13846 17.2049 4.29144 17.109 4.4796C17 4.69351 17 4.97354 17 5.53359V6.33359C17 6.89365 17 7.17367 17.109 7.38758C17.2049 7.57575 17.3578 7.72873 17.546 7.8246C17.7599 7.93359 18.0399 7.93359 18.6 7.93359ZM18.6 21.9336H19.4C19.9601 21.9336 20.2401 21.9336 20.454 21.8246C20.6422 21.7287 20.7951 21.5757 20.891 21.3876C21 21.1737 21 20.8936 21 20.3336V19.5336C21 18.9735 21 18.6935 20.891 18.4796C20.7951 18.2914 20.6422 18.1385 20.454 18.0426C20.2401 17.9336 19.9601 17.9336 19.4 17.9336H18.6C18.0399 17.9336 17.7599 17.9336 17.546 18.0426C17.3578 18.1385 17.2049 18.2914 17.109 18.4796C17 18.6935 17 18.9735 17 19.5336V20.3336C17 20.8936 17 21.1737 17.109 21.3876C17.2049 21.5757 17.3578 21.7287 17.546 21.8246C17.7599 21.9336 18.0399 21.9336 18.6 21.9336Z" stroke="#FFBF5D" stroke-width="2" stroke-linecap="round" stroke-linejoin="round"/>
</g>
</svg>
