<svg width="24" height="25" viewBox="0 0 24 25" fill="none" xmlns="http://www.w3.org/2000/svg">
<g id="vuesax/bold/layer">
<g id="Group">
<g id="Group 48096639">
<path id="Vector" d="M19.3707 8.17039L13.5107 5.56039C12.6507 5.18039 11.3507 5.18039 10.4907 5.56039L4.63066 8.17039C3.15066 8.83039 2.93066 9.73039 2.93066 10.2104C2.93066 10.6904 3.15066 11.5904 4.63066 12.2504L10.4907 14.8604C10.9207 15.0504 11.4607 15.1504 12.0007 15.1504C12.5407 15.1504 13.0807 15.0504 13.5107 14.8604L19.3707 12.2504C20.8507 11.5904 21.0707 10.6904 21.0707 10.2104C21.0707 9.73039 20.8607 8.83039 19.3707 8.17039Z" fill="#FFBF5D"/>
<path id="Vector_2" d="M12.0003 20.3193C11.6203 20.3193 11.2403 20.2393 10.8903 20.0893L4.15031 17.0893C3.12031 16.6293 2.32031 15.3993 2.32031 14.2693C2.32031 13.8593 2.65031 13.5293 3.06031 13.5293C3.47031 13.5293 3.80031 13.8593 3.80031 14.2693C3.80031 14.8093 4.25031 15.5093 4.75031 15.7293L11.4903 18.7293C11.8103 18.8693 12.1803 18.8693 12.5003 18.7293L19.2403 15.7293C19.7403 15.5093 20.1903 14.8193 20.1903 14.2693C20.1903 13.8593 20.5203 13.5293 20.9303 13.5293C21.3403 13.5293 21.6703 13.8593 21.6703 14.2693C21.6703 15.3893 20.8703 16.6293 19.8403 17.0893L13.1003 20.0893C12.7603 20.2393 12.3803 20.3193 12.0003 20.3193Z" fill="#FFBF5D"/>
</g>
</g>
</g>
</svg>
