<svg width="27" height="26" viewBox="0 0 27 26" fill="none" xmlns="http://www.w3.org/2000/svg">
<g id="Frame 30">
<g id="Group">
<path id="Vector" d="M21.016 23.1333H5.784C5.04564 23.1333 4.33752 22.84 3.81541 22.3179C3.29331 21.7958 3 21.0877 3 20.3493V5.11734C3 4.37898 3.29331 3.67086 3.81541 3.14876C4.33752 2.62666 5.04564 2.33334 5.784 2.33334H21.016C21.7544 2.33334 22.4625 2.62666 22.9846 3.14876C23.5067 3.67086 23.8 4.37898 23.8 5.11734V20.3493C23.8 21.0877 23.5067 21.7958 22.9846 22.3179C22.4625 22.84 21.7544 23.1333 21.016 23.1333ZM5.784 3.93334C5.46998 3.93334 5.16883 4.05809 4.94679 4.28013C4.72474 4.50217 4.6 4.80333 4.6 5.11734V20.3493C4.6 20.6634 4.72474 20.9645 4.94679 21.1866C5.16883 21.4086 5.46998 21.5333 5.784 21.5333H21.016C21.33 21.5333 21.6312 21.4086 21.8532 21.1866C22.0753 20.9645 22.2 20.6634 22.2 20.3493V5.11734C22.2 4.80333 22.0753 4.50217 21.8532 4.28013C21.6312 4.05809 21.33 3.93334 21.016 3.93334H5.784Z" fill="white"/>
<path id="Vector_2" d="M3.79998 19.9973C3.68474 19.997 3.57091 19.9721 3.46607 19.9242C3.36123 19.8764 3.26779 19.8068 3.19198 19.72C3.12374 19.6396 3.07208 19.5465 3.03996 19.446C3.00784 19.3456 2.9959 19.2398 3.00482 19.1347C3.01374 19.0296 3.04335 18.9274 3.09195 18.8338C3.14054 18.7402 3.20716 18.6571 3.28798 18.5893L8.74931 13.9813C9.15707 13.6372 9.67899 13.4583 10.2121 13.4801C10.7453 13.5018 11.2509 13.7225 11.6293 14.0987L14.2213 16.6907C14.3179 16.7733 14.4409 16.8187 14.568 16.8187C14.6951 16.8187 14.818 16.7733 14.9146 16.6907L17.432 14.8667C17.805 14.5795 18.2625 14.4238 18.7333 14.4238C19.2041 14.4238 19.6616 14.5795 20.0346 14.8667L23.5013 17.6293C23.584 17.6952 23.6528 17.7766 23.704 17.8691C23.7551 17.9616 23.7876 18.0632 23.7995 18.1682C23.8114 18.2732 23.8025 18.3795 23.7733 18.481C23.7441 18.5826 23.6951 18.6774 23.6293 18.76C23.5635 18.8427 23.482 18.9115 23.3896 18.9627C23.2971 19.0138 23.1955 19.0463 23.0905 19.0582C22.9855 19.0701 22.8792 19.0612 22.7776 19.032C22.6761 19.0028 22.5813 18.9538 22.4986 18.888L19.0426 16.1147C18.9494 16.0429 18.835 16.004 18.7173 16.004C18.5996 16.004 18.4852 16.0429 18.392 16.1147L15.8746 18.0667C15.4649 18.3744 14.9581 18.5243 14.4469 18.489C13.9357 18.4538 13.4543 18.2357 13.0906 17.8747L10.4986 15.2293C10.4006 15.1409 10.2733 15.0919 10.1413 15.0919C10.0093 15.0919 9.88198 15.1409 9.78398 15.2293L4.31198 19.816C4.1691 19.9368 3.98703 20.0013 3.79998 19.9973ZM16.6 12.4667C16.0198 12.4667 15.4527 12.2946 14.9703 11.9723C14.4879 11.65 14.1119 11.1919 13.8899 10.6559C13.6679 10.1199 13.6098 9.53009 13.723 8.96108C13.8362 8.39207 14.1156 7.86939 14.5258 7.45916C14.936 7.04893 15.4587 6.76955 16.0277 6.65637C16.5967 6.54319 17.1865 6.60128 17.7225 6.82329C18.2585 7.04531 18.7166 7.42128 19.039 7.90367C19.3613 8.38605 19.5333 8.95318 19.5333 9.53334C19.5333 10.3113 19.2243 11.0574 18.6742 11.6075C18.1241 12.1576 17.3779 12.4667 16.6 12.4667ZM16.6 8.20001C16.3363 8.20001 16.0785 8.27821 15.8592 8.42471C15.64 8.57122 15.4691 8.77946 15.3681 9.0231C15.2672 9.26673 15.2408 9.53482 15.2923 9.79346C15.3437 10.0521 15.4707 10.2897 15.6572 10.4762C15.8436 10.6626 16.0812 10.7896 16.3399 10.8411C16.5985 10.8925 16.8666 10.8661 17.1102 10.7652C17.3539 10.6643 17.5621 10.4934 17.7086 10.2741C17.8551 10.0548 17.9333 9.79705 17.9333 9.53334C17.9333 9.17972 17.7928 8.84058 17.5428 8.59053C17.2927 8.34048 16.9536 8.20001 16.6 8.20001Z" fill="white"/>
</g>
</g>
</svg>
