<svg width="24" height="24" viewBox="0 0 24 24" fill="none" xmlns="http://www.w3.org/2000/svg">
<g id="Frame 31">
<g id="Group">
<path id="Vector" fill-rule="evenodd" clip-rule="evenodd" d="M22.1 1.89996C21.8148 1.61464 21.4761 1.38831 21.1033 1.23389C20.7306 1.07948 20.331 1 19.9276 1C19.5241 1 19.1246 1.07948 18.7518 1.23389C18.3791 1.38831 18.0404 1.61464 17.7551 1.89996L16.6936 2.96145L16.4406 2.70845C16.104 2.37052 15.654 2.16932 15.1777 2.14369C14.7014 2.11807 14.2325 2.26984 13.8615 2.5697C13.4906 2.86956 13.2439 3.29623 13.1691 3.76733C13.0943 4.23843 13.1967 4.72054 13.4565 5.12056L6.57691 12.0002H3.35711C2.73196 12.0002 2.13242 12.2485 1.69038 12.6905C1.24834 13.1326 1 13.7321 1 14.3573V20.6429C1 21.268 1.24834 21.8676 1.69038 22.3096C2.13242 22.7517 2.73196 23 3.35711 23H9.64273C10.2679 23 10.8674 22.7517 11.3095 22.3096C11.7515 21.8676 11.9998 21.268 11.9998 20.6429V17.4231L18.8794 10.5435C19.2795 10.8012 19.7608 10.902 20.2307 10.8264C20.7005 10.7509 21.1259 10.5044 21.4251 10.1343C21.7243 9.76415 21.8761 9.29652 21.8515 8.82124C21.8268 8.34596 21.6274 7.89656 21.2915 7.55938L21.0386 7.30638L22.0993 6.24568C22.3846 5.96041 22.6109 5.62172 22.7653 5.24897C22.9197 4.87621 22.9992 4.47669 22.9992 4.07322C22.9992 3.66974 22.9197 3.27022 22.7653 2.89747C22.6109 2.52471 22.3846 2.18603 22.0993 1.90075L22.1 1.89996ZM10.4284 18.7674C9.7097 19.1539 8.88658 19.3014 8.07839 19.1886C7.64517 19.6219 7.05755 19.8654 6.4448 19.8654C5.83206 19.8655 5.24438 19.6222 4.81105 19.189C4.37772 18.7557 4.13424 18.1681 4.13416 17.5554C4.13409 16.9426 4.37743 16.3549 4.81066 15.9216C4.69815 15.1133 4.84593 14.2902 5.23258 13.5716H3.35711C3.14873 13.5716 2.94888 13.6544 2.80153 13.8017C2.65418 13.949 2.5714 14.1489 2.5714 14.3573V20.6429C2.5714 20.8513 2.65418 21.0511 2.80153 21.1985C2.94888 21.3458 3.14873 21.4286 3.35711 21.4286H9.64273C9.85111 21.4286 10.051 21.3458 10.1983 21.1985C10.3456 21.0511 10.4284 20.8513 10.4284 20.6429V18.7674ZM19.9276 6.1954L17.8046 4.07243L18.8653 3.01173C19.1467 2.7301 19.5285 2.57181 19.9266 2.57166C20.3248 2.57151 20.7066 2.72953 20.9883 3.01095C21.2699 3.29237 21.4282 3.67413 21.4283 4.07227C21.4285 4.4704 21.2705 4.85229 20.9891 5.13391L19.9276 6.1954ZM14.8236 3.81943C14.8569 3.78617 14.8963 3.75979 14.9397 3.74179C14.9831 3.72378 15.0296 3.71452 15.0766 3.71452C15.1236 3.71452 15.1702 3.72378 15.2136 3.74179C15.257 3.75979 15.2964 3.78617 15.3296 3.81943L20.1806 8.67036C20.2477 8.73746 20.2854 8.82846 20.2854 8.92336C20.2854 9.01825 20.2477 9.10925 20.1806 9.17635C20.1135 9.24345 20.0225 9.28115 19.9276 9.28115C19.8327 9.28115 19.7417 9.24345 19.6746 9.17635L14.8236 4.32543C14.7904 4.29222 14.764 4.25279 14.746 4.20937C14.728 4.16596 14.7187 4.11943 14.7187 4.07243C14.7187 4.02543 14.728 3.9789 14.746 3.93549C14.764 3.89207 14.7904 3.85264 14.8236 3.81943ZM7.00827 13.7916L14.5377 6.26297L17.7386 9.46313L10.2092 16.9925C9.9282 17.2737 9.57805 17.4758 9.19403 17.5786C8.81002 17.6814 8.40571 17.6811 8.02182 17.5779C7.88863 17.5424 7.74845 17.5426 7.61537 17.5785C7.48229 17.6144 7.36098 17.6846 7.26362 17.7822L6.97527 18.0705C6.90665 18.1391 6.82519 18.1935 6.73554 18.2307C6.6459 18.2678 6.54981 18.2869 6.45277 18.2869C6.35574 18.2869 6.25965 18.2678 6.17 18.2307C6.08035 18.1935 5.9989 18.1391 5.93028 18.0705C5.86167 18.0019 5.80724 17.9204 5.77011 17.8308C5.73297 17.7411 5.71386 17.645 5.71386 17.548C5.71386 17.451 5.73297 17.3549 5.77011 17.2652C5.80724 17.1756 5.86167 17.0941 5.93028 17.0255L6.21864 16.7372C6.3162 16.6398 6.38643 16.5185 6.42229 16.3854C6.45814 16.2523 6.45836 16.1122 6.42292 15.979C6.31968 15.5951 6.31943 15.1908 6.42219 14.8068C6.52495 14.4227 6.7271 14.0726 7.00827 13.7916Z" fill="white"/>
</g>
</g>
</svg>
