<svg width="25" height="24" viewBox="0 0 25 24" fill="none" xmlns="http://www.w3.org/2000/svg">
<g id="vuesax/linear/group">
<g id="group">
<g id="Brush">
<path id="Vector" d="M6.33337 2H18.3334C19.4334 2 20.3334 2.9 20.3334 4V8.32001H4.33337V4C4.33337 2.9 5.23337 2 6.33337 2Z" stroke="white" stroke-width="1.5" stroke-linecap="round" stroke-linejoin="round"/>
<path id="Vector_2" d="M4.33337 8.32001V11.88C4.33337 12.96 4.9134 13.96 5.8634 14.49L8.82336 16.16C9.45336 16.51 9.84338 17.18 9.84338 17.9V20C9.84338 21.1 10.7434 22 11.8434 22H12.8434C13.9434 22 14.8434 21.1 14.8434 20V17.9C14.8434 17.18 15.2334 16.51 15.8634 16.16L18.8234 14.49C19.7634 13.96 20.3534 12.96 20.3534 11.88V8.32001H4.33337Z" stroke="white" stroke-width="1.5" stroke-linecap="round" stroke-linejoin="round"/>
</g>
</g>
</g>
</svg>
