<svg width="24" height="24" viewBox="0 0 24 24" fill="none" xmlns="http://www.w3.org/2000/svg">
<g id="vuesax/linear/eraser">
<g id="eraser">
<path id="Vector" d="M9 22H21" stroke="url(#paint0_linear_270_2656)" stroke-width="1.5" stroke-linecap="round" stroke-linejoin="round"/>
<path id="Vector_2" d="M2.90997 17.58L6.41998 21.09C7.58998 22.26 9.49997 22.26 10.66 21.09L21.09 10.66C22.26 9.49 22.26 7.58 21.09 6.42L17.58 2.91C16.41 1.74 14.5 1.74 13.34 2.91L2.90997 13.34C1.73997 14.5 1.73997 16.41 2.90997 17.58Z" stroke="url(#paint1_linear_270_2656)" stroke-width="1.5" stroke-linecap="round" stroke-linejoin="round"/>
<path id="Vector_3" d="M7.12012 9.13L14.8701 16.88" stroke="url(#paint2_linear_270_2656)" stroke-width="1.5" stroke-linecap="round" stroke-linejoin="round"/>
<path id="Vector_4" d="M3.52002 17.66L9.16998 12" stroke="url(#paint3_linear_270_2656)" stroke-width="1.5" stroke-linecap="round" stroke-linejoin="round"/>
<path id="Vector_5" d="M6.34009 20.49L12.0001 14.83" stroke="url(#paint4_linear_270_2656)" stroke-width="1.5" stroke-linecap="round" stroke-linejoin="round"/>
</g>
</g>
<defs>
<linearGradient id="paint0_linear_270_2656" x1="9.6" y1="22" x2="9.74968" y2="23.8907" gradientUnits="userSpaceOnUse">
<stop stop-color="#FFA51E"/>
<stop offset="1" stop-color="#FC01E3"/>
</linearGradient>
<linearGradient id="paint1_linear_270_2656" x1="3.02922" y1="2.0325" x2="21.9675" y2="21.9675" gradientUnits="userSpaceOnUse">
<stop stop-color="#FFA51E"/>
<stop offset="1" stop-color="#FC01E3"/>
</linearGradient>
<linearGradient id="paint2_linear_270_2656" x1="7.50762" y1="9.13" x2="14.8701" y2="16.88" gradientUnits="userSpaceOnUse">
<stop stop-color="#FFA51E"/>
<stop offset="1" stop-color="#FC01E3"/>
</linearGradient>
<linearGradient id="paint3_linear_270_2656" x1="3.80252" y1="12" x2="9.18" y2="17.6505" gradientUnits="userSpaceOnUse">
<stop stop-color="#FFA51E"/>
<stop offset="1" stop-color="#FC01E3"/>
</linearGradient>
<linearGradient id="paint4_linear_270_2656" x1="6.62309" y1="14.83" x2="12.0001" y2="20.49" gradientUnits="userSpaceOnUse">
<stop stop-color="#FFA51E"/>
<stop offset="1" stop-color="#FC01E3"/>
</linearGradient>
</defs>
</svg>
