<svg width="28" height="28" viewBox="0 0 28 28" fill="none" xmlns="http://www.w3.org/2000/svg">
<g id="vuesax/linear/magicpen">
<g id="magicpen">
<path id="Vector" d="M4.08318 23.9167C5.05152 24.885 6.61485 24.885 7.58318 23.9167L22.7498 8.74999C23.7182 7.78166 23.7182 6.21833 22.7498 5.24999C21.7815 4.28166 20.2182 4.28166 19.2499 5.24999L4.08318 20.4167C3.11485 21.385 3.11485 22.9483 4.08318 23.9167Z" stroke="url(#paint0_linear_270_2344)" stroke-width="1.75" stroke-linecap="round" stroke-linejoin="round"/>
<path id="Vector_2" d="M21.0117 10.4883L17.5117 6.98834" stroke="url(#paint1_linear_270_2344)" stroke-width="1.75" stroke-linecap="round" stroke-linejoin="round"/>
<path id="Vector_3" d="M9.91675 2.84668L11.6667 2.33334L11.1534 4.08334L11.6667 5.83334L9.91675 5.32001L8.16675 5.83334L8.68008 4.08334L8.16675 2.33334L9.91675 2.84668Z" stroke="url(#paint2_linear_270_2344)" stroke-width="1.16667" stroke-linecap="round" stroke-linejoin="round"/>
<path id="Vector_4" d="M5.25 9.84668L7 9.33334L6.48667 11.0833L7 12.8333L5.25 12.32L3.5 12.8333L4.01333 11.0833L3.5 9.33334L5.25 9.84668Z" stroke="url(#paint3_linear_270_2344)" stroke-width="1.16667" stroke-linecap="round" stroke-linejoin="round"/>
<path id="Vector_5" d="M22.75 15.68L24.5 15.1667L23.9867 16.9167L24.5 18.6667L22.75 18.1533L21 18.6667L21.5133 16.9167L21 15.1667L22.75 15.68Z" stroke="url(#paint4_linear_270_2344)" stroke-width="1.16667" stroke-linecap="round" stroke-linejoin="round"/>
</g>
</g>
<defs>
<linearGradient id="paint0_linear_270_2344" x1="4.36289" y1="4.52374" x2="23.4761" y2="24.6429" gradientUnits="userSpaceOnUse">
<stop stop-color="#FFA51E"/>
<stop offset="1" stop-color="#FC01E3"/>
</linearGradient>
<linearGradient id="paint1_linear_270_2344" x1="17.6867" y1="6.98834" x2="21.0117" y2="10.4883" gradientUnits="userSpaceOnUse">
<stop stop-color="#FFA51E"/>
<stop offset="1" stop-color="#FC01E3"/>
</linearGradient>
<linearGradient id="paint2_linear_270_2344" x1="8.34175" y1="2.33334" x2="11.6667" y2="5.83334" gradientUnits="userSpaceOnUse">
<stop stop-color="#FFA51E"/>
<stop offset="1" stop-color="#FC01E3"/>
</linearGradient>
<linearGradient id="paint3_linear_270_2344" x1="3.675" y1="9.33334" x2="7" y2="12.8333" gradientUnits="userSpaceOnUse">
<stop stop-color="#FFA51E"/>
<stop offset="1" stop-color="#FC01E3"/>
</linearGradient>
<linearGradient id="paint4_linear_270_2344" x1="21.175" y1="15.1667" x2="24.5" y2="18.6667" gradientUnits="userSpaceOnUse">
<stop stop-color="#FFA51E"/>
<stop offset="1" stop-color="#FC01E3"/>
</linearGradient>
</defs>
</svg>
