<svg width="143" height="161" viewBox="0 0 143 161" fill="none" xmlns="http://www.w3.org/2000/svg">
<g id="5">
<g id="Group 774">
<path id="Vector" d="M122.1 94.9162C122.1 109.116 116.3 121.916 107 131.116C97.9 140.216 85.3 145.716 71.4 145.716C57.6 145.716 45 140.116 35.8 131.116C26.5 121.916 20.7 109.116 20.7 94.9162C20.7 66.8162 43.4 44.1162 71.4 44.1162C99.4 44.1162 122.1 66.9162 122.1 94.9162Z" fill="#2A2E37"/>
<path id="Vector_2" d="M127.351 75.6473C129.616 75.6473 131.451 73.8116 131.451 71.5473C131.451 69.2829 129.616 67.4473 127.351 67.4473C125.087 67.4473 123.251 69.2829 123.251 71.5473C123.251 73.8116 125.087 75.6473 127.351 75.6473Z" fill="#2A2E37"/>
<path id="Vector_3" d="M123.7 45.6166C125.246 45.6166 126.5 44.363 126.5 42.8166C126.5 41.2702 125.246 40.0166 123.7 40.0166C122.154 40.0166 120.9 41.2702 120.9 42.8166C120.9 44.363 122.154 45.6166 123.7 45.6166Z" fill="#2A2E37"/>
<path id="Vector_4" d="M22.3 61.517C23.8464 61.517 25.1 60.2634 25.1 58.717C25.1 57.1706 23.8464 55.917 22.3 55.917C20.7536 55.917 19.5 57.1706 19.5 58.717C19.5 60.2634 20.7536 61.517 22.3 61.517Z" fill="#2A2E37"/>
<path id="Vector_5" d="M5.2 115.516C8.07188 115.516 10.4 113.188 10.4 110.316C10.4 107.444 8.07188 105.116 5.2 105.116C2.32812 105.116 0 107.444 0 110.316C0 113.188 2.32812 115.516 5.2 115.516Z" fill="#2A2E37"/>
</g>
<g id="Group 775">
<path id="Vector_6" d="M109.843 65.0097L105.673 95.3027L100.46 132.734C99.2436 133.43 97.8535 133.952 96.4633 133.952H36.3407C33.7342 133.952 31.4753 133.082 29.5638 131.689C29.0425 131.341 28.5213 130.819 28 130.296C25.9148 128.207 24.5247 125.073 24.5247 121.766V57.0013C24.5247 54.0416 26.9574 51.7783 29.7376 51.7783H47.9829C49.1993 51.7783 50.4156 52.3006 51.4582 53.3452L57.3662 59.7868C58.2351 60.6573 59.4514 61.1796 60.6678 61.1796H106.368C108.453 61.1796 110.017 62.9206 109.843 65.0097Z" fill="#414758"/>
<g id="Vector_7" filter="url(#filter0_d_85_3767)">
<path d="M33.3866 127.337L38.252 71.1033C38.4258 69.0141 40.1634 67.4473 42.2486 67.4473H111.407C113.318 67.4473 114.709 69.0141 114.535 70.9292L109.669 118.806L33.3866 127.337Z" fill="url(#paint0_linear_85_3767)"/>
</g>
<g id="Vector_8" filter="url(#filter1_d_85_3767)">
<path d="M61.0152 121.243L35.6455 127.162L51.2843 84.1601C51.9794 82.2451 53.7171 81.0264 55.8022 81.0264H117.141C119.4 81.0264 120.964 83.4637 119.921 85.5529L103.24 119.676L61.0152 121.243Z" fill="url(#paint1_linear_85_3767)"/>
</g>
<path id="Vector_9" d="M125.829 99.4814L102.545 130.819C102.024 131.515 101.155 132.212 100.46 132.734C99.2434 133.43 97.8533 133.953 96.4632 133.953H36.3406C33.7341 133.953 31.4751 133.082 29.5637 131.689L53.8908 103.312H92.1191C93.8567 103.312 95.5944 102.789 96.9845 101.571L103.588 96.5218C104.283 95.9995 104.978 95.6513 105.673 95.3031C106.542 94.9549 107.584 94.7808 108.453 94.7808H123.397C125.829 94.6067 127.22 97.5663 125.829 99.4814Z" fill="#414758"/>
</g>
<g id="Group 776">
<path id="Vector_10" d="M112.88 58.0575L85.6026 40.3894C84.0343 39.3634 83.5768 37.2779 84.5975 35.6921L101.536 9.61228C102.564 8.04438 104.652 7.58561 106.238 8.6042L133.515 26.2724C135.084 27.2983 135.541 29.3839 134.52 30.9696L117.589 57.0673C116.561 58.6352 114.448 59.0834 112.88 58.0575Z" fill="#2A2E37"/>
<path id="Vector_11" d="M113.907 53.174L89.925 37.6387C89.2473 37.2073 89.0645 36.3021 89.4968 35.6246L103.504 14.0607C103.937 13.3832 104.843 13.1998 105.52 13.6313L129.502 29.1665C130.18 29.598 130.363 30.5032 129.931 31.1807L115.923 52.7445C115.491 53.422 114.585 53.6054 113.907 53.174Z" fill="#414758"/>
<path id="Vector_12" d="M107.698 37.555L98.9443 31.8813L106.529 29.7553L107.698 37.555Z" fill="#5C6479"/>
<path id="Vector_13" d="M114.941 42.2412L102.33 34.081L113.25 31.0268L114.941 42.2412Z" fill="#2A2E37"/>
<path id="Vector_14" d="M105.885 26.3483C106.297 27.3543 107.448 27.8354 108.455 27.423C109.462 27.0105 109.944 25.8606 109.532 24.8547C109.12 23.8487 107.97 23.3676 106.963 23.78C105.956 24.1925 105.473 25.3423 105.885 26.3483Z" fill="#5C6479"/>
</g>
</g>
<defs>
<filter id="filter0_d_85_3767" x="11.3866" y="56.4473" width="125.163" height="103.89" filterUnits="userSpaceOnUse" color-interpolation-filters="sRGB">
<feFlood flood-opacity="0" result="BackgroundImageFix"/>
<feColorMatrix in="SourceAlpha" type="matrix" values="0 0 0 0 0 0 0 0 0 0 0 0 0 0 0 0 0 0 127 0" result="hardAlpha"/>
<feOffset dy="11"/>
<feGaussianBlur stdDeviation="11"/>
<feColorMatrix type="matrix" values="0 0 0 0 0 0 0 0 0 0 0 0 0 0 0 0 0 0 0.67 0"/>
<feBlend mode="normal" in2="BackgroundImageFix" result="effect1_dropShadow_85_3767"/>
<feBlend mode="normal" in="SourceGraphic" in2="effect1_dropShadow_85_3767" result="shape"/>
</filter>
<filter id="filter1_d_85_3767" x="13.6455" y="70.0264" width="128.606" height="90.1357" filterUnits="userSpaceOnUse" color-interpolation-filters="sRGB">
<feFlood flood-opacity="0" result="BackgroundImageFix"/>
<feColorMatrix in="SourceAlpha" type="matrix" values="0 0 0 0 0 0 0 0 0 0 0 0 0 0 0 0 0 0 127 0" result="hardAlpha"/>
<feOffset dy="11"/>
<feGaussianBlur stdDeviation="11"/>
<feColorMatrix type="matrix" values="0 0 0 0 0 0 0 0 0 0 0 0 0 0 0 0 0 0 0.67 0"/>
<feBlend mode="normal" in2="BackgroundImageFix" result="effect1_dropShadow_85_3767"/>
<feBlend mode="normal" in="SourceGraphic" in2="effect1_dropShadow_85_3767" result="shape"/>
</filter>
<linearGradient id="paint0_linear_85_3767" x1="73.9416" y1="66.062" x2="73.9416" y2="127.983" gradientUnits="userSpaceOnUse">
<stop stop-color="#5C6479"/>
<stop offset="0.9964" stop-color="#5C6479"/>
</linearGradient>
<linearGradient id="paint1_linear_85_3767" x1="77.921" y1="79.9592" x2="77.921" y2="127.66" gradientUnits="userSpaceOnUse">
<stop stop-color="#5C6479"/>
<stop offset="0.9964" stop-color="#5C6479"/>
</linearGradient>
</defs>
</svg>
