<svg width="24" height="24" viewBox="0 0 24 24" fill="none" xmlns="http://www.w3.org/2000/svg">
<path id="Vector" d="M5.33333 18.6667H18.6667V5.33333H5.33333V18.6667ZM16 2.66667H18.6667V0H16V2.66667ZM16 24H18.6667V21.3333H16V24ZM21.3333 18.6667H24V16H21.3333V18.6667ZM21.3333 8H24V5.33333H21.3333V8ZM21.3333 24C22.0406 24 22.7189 23.719 23.219 23.219C23.719 22.7189 24 22.0406 24 21.3333H21.3333V24ZM21.3333 13.3333H24V10.6667H21.3333V13.3333ZM10.6667 24H13.3333V21.3333H10.6667V24ZM8 0H5.33333V2.66667H8V0ZM0 18.6667H2.66667V16H0V18.6667ZM2.66667 24V21.3333H0C0 22.0406 0.280951 22.7189 0.781048 23.219C1.28115 23.719 1.95942 24 2.66667 24ZM21.3333 0V2.66667H24C24 1.95942 23.719 1.28115 23.219 0.781048C22.7189 0.280951 22.0406 0 21.3333 0ZM13.3333 0H10.6667V2.66667H13.3333V0ZM0 8H2.66667V5.33333H0V8ZM5.33333 24H8V21.3333H5.33333V24ZM0 13.3333H2.66667V10.6667H0V13.3333ZM0 2.66667H2.66667V0C1.95942 0 1.28115 0.280951 0.781048 0.781048C0.280951 1.28115 0 1.95942 0 2.66667Z" fill="white"/>
</svg>
