<svg width="230" height="161" viewBox="0 0 230 161" fill="none" xmlns="http://www.w3.org/2000/svg">
<g id="permission" clip-path="url(#clip0_63_9336)">
<g id="Group">
<path id="Vector" d="M0.700928 151.087H229.951" stroke="#262127" stroke-width="0.248932" stroke-miterlimit="10"/>
<path id="Vector_2" d="M61.5935 160.726H141.138" stroke="#262127" stroke-width="0.248932" stroke-miterlimit="10"/>
</g>
<g id="Group_2">
<g id="Group_3">
<path id="Vector_3" d="M59.0619 59.7545H34.6321C33.6034 59.7545 32.7695 60.5808 32.7695 61.6V73.9264C32.7695 74.9457 33.6034 75.772 34.6321 75.772H59.0619C60.0905 75.772 60.9244 74.9457 60.9244 73.9264V61.6C60.9244 60.5808 60.0905 59.7545 59.0619 59.7545Z" fill="#3C6BE0"/>
<path id="Vector_4" d="M54.6609 74.184V81.6176L46.6909 74.184H54.6609Z" fill="#3C6BE0"/>
<g id="Group_4">
<path id="Vector_5" d="M49.8613 71.1109C47.9987 71.1109 46.4827 69.6088 46.4827 67.7632C46.4827 65.9177 47.9987 64.4155 49.8613 64.4155C51.7238 64.4155 53.2398 65.9177 53.2398 67.7632C53.2398 69.6088 51.7238 71.1109 49.8613 71.1109ZM49.8613 65.8576C48.7957 65.8576 47.9294 66.716 47.9294 67.7718C47.9294 68.8276 48.7957 69.686 49.8613 69.686C50.9268 69.686 51.7931 68.8276 51.7931 67.7718C51.7931 66.716 50.9268 65.8576 49.8613 65.8576Z" fill="white"/>
<path id="Vector_6" d="M41.8908 69.9778H40.4441V67.0508H47.2099V68.4843H41.8908V69.9778Z" fill="white"/>
<path id="Vector_7" d="M44.1347 67.7632H42.688V69.4371H44.1347V67.7632Z" fill="white"/>
</g>
</g>
<g id="Group_5">
<path id="Vector_8" d="M209.902 68.1924H219.7C220.202 68.1924 220.61 68.6044 220.61 69.1023V74.5616C220.61 75.068 220.202 75.4715 219.7 75.4715H215.706L212.354 79.1797V75.6088L209.885 75.5573C209.391 75.5487 208.992 75.1453 208.992 74.6474V69.1023C208.992 68.5958 209.4 68.1924 209.902 68.1924Z" stroke="#D5B2B2" stroke-width="0.377689" stroke-miterlimit="10"/>
<path id="Vector_9" d="M38.1664 96.7937C38.1664 98.3131 36.945 99.5406 35.4289 99.5406C33.9129 99.5406 32.6914 98.3131 32.6914 96.7937C32.6914 95.2744 33.9129 94.0469 35.4289 94.0469C36.945 94.0469 38.1664 95.2744 38.1664 96.7937Z" stroke="#D5B2B2" stroke-width="0.420608" stroke-miterlimit="10"/>
<path id="Vector_10" d="M182.849 2.59461C182.849 3.70193 181.957 4.59465 180.857 4.59465C179.756 4.59465 178.864 3.69334 178.864 2.59461C178.864 1.49588 179.756 0.594574 180.857 0.594574C181.957 0.594574 182.849 1.49588 182.849 2.59461Z" stroke="#D5B2B2" stroke-width="0.420608" stroke-miterlimit="10"/>
<path id="Vector_11" d="M55.7007 13.3673H51.5598V17.5305H55.7007V13.3673Z" stroke="#D5B2B2" stroke-width="0.420608" stroke-miterlimit="10"/>
</g>
<g id="Group_6">
<path id="Vector_12" d="M201.975 21.2044H218.773C220.194 21.2044 221.337 22.3461 221.337 23.7453V40.561C221.337 41.9688 220.185 43.1018 218.773 43.1018H202.703C200.884 43.1018 199.411 41.6426 199.411 39.84V23.7453C199.411 22.3375 200.563 21.2044 201.975 21.2044Z" fill="#73C994"/>
<path id="Vector_13" d="M203.993 40.0203V47.4453L211.963 40.0203H203.993Z" fill="#73C994"/>
<g id="Group_7">
<path id="Vector_14" d="M211.798 35.7626C211.798 36.5437 211.157 37.1789 210.369 37.1789C209.581 37.1789 208.94 36.5437 208.94 35.7626C208.94 34.9814 209.581 34.3462 210.369 34.3462C211.157 34.3462 211.798 34.9814 211.798 35.7626Z" fill="white"/>
<g id="Clip path group">
<mask id="mask0_63_9336" style="mask-type:luminance" maskUnits="userSpaceOnUse" x="199" y="25" width="23" height="11">
<g id="clippath">
<path id="Vector_15" d="M210.367 35.7626L221.36 25.4104H210.367H199.382L210.367 35.7626Z" fill="white"/>
</g>
</mask>
<g mask="url(#mask0_63_9336)">
<g id="Group_8">
<g id="Group_9">
<path id="Vector_16" d="M210.367 40.5867C207.681 40.5867 205.498 38.4236 205.498 35.7626C205.498 33.1016 207.681 30.9385 210.367 30.9385C213.052 30.9385 215.236 33.1016 215.236 35.7626C215.236 38.4236 213.052 40.5867 210.367 40.5867ZM210.367 32.2776C208.426 32.2776 206.85 33.8398 206.85 35.7626C206.85 37.6854 208.426 39.2476 210.367 39.2476C212.307 39.2476 213.884 37.6854 213.884 35.7626C213.884 33.8398 212.307 32.2776 210.367 32.2776Z" fill="white"/>
<path id="Vector_17" d="M210.367 43.7713C205.914 43.7713 202.284 40.1747 202.284 35.7626C202.284 31.3505 205.914 27.7539 210.367 27.7539C214.819 27.7539 218.449 31.3505 218.449 35.7626C218.449 40.1747 214.819 43.7713 210.367 43.7713ZM210.367 29.093C206.659 29.093 203.635 32.0801 203.635 35.7626C203.635 39.4451 206.65 42.4323 210.367 42.4323C214.083 42.4323 217.098 39.4451 217.098 35.7626C217.098 32.0801 214.083 29.093 210.367 29.093Z" fill="white"/>
</g>
</g>
</g>
</g>
</g>
</g>
</g>
<g id="Group_10">
<g id="Group_11">
<g id="Group_12">
<g id="Group_13">
<path id="Vector_18" d="M46.8159 146.227L52.6548 146.231L52.6603 138.411L46.8214 138.407L46.8159 146.227Z" fill="#D09197"/>
<g id="Group_14">
<path id="Vector_19" d="M52.6529 145.293H45.246L39.8316 147.842C38.6101 148.469 37.8391 149.713 37.8391 151.078H52.6529V145.293Z" fill="#0F0E0F"/>
<path id="Vector_20" d="M44.6479 145.567L46.3199 143.335C46.3199 143.335 48.9275 142.863 48.7023 145.679L44.6566 145.576L44.6479 145.567Z" fill="#0F0E0F"/>
</g>
</g>
<path id="Vector_21" d="M56.0052 113.343L54.4805 140.271L43.8943 139.979L44.4314 113.858C44.3448 110.322 47.3335 107.438 51.2492 107.815C53.3543 108.142 56.1438 109.944 56.0052 113.343Z" fill="#0F0E0F"/>
<path id="Vector_22" d="M73.3574 129.953L54.4893 109.446L52.644 122.502L73.1061 143.79C73.9031 144.58 74.8647 145.198 75.9476 145.524C78.4772 146.305 83.3805 145.507 86.092 138.906L73.3487 129.945L73.3574 129.953Z" fill="#0F0E0F"/>
</g>
<g id="Group_15">
<g id="Group_16">
<path id="Vector_23" d="M22.1139 143.668L25.1855 148.588L31.8973 144.475L28.8256 139.554L22.1139 143.668Z" fill="#FDC3C6"/>
<g id="Group_17">
<path id="Vector_24" d="M25.9942 148.108L22.0958 141.868L17.0539 138.649C15.8757 137.945 14.3944 137.953 13.2249 138.674L21.0129 151.155L25.9855 148.108H25.9942Z" fill="#262127"/>
<path id="Vector_25" d="M21.5508 141.498L24.3489 141.73C24.3489 141.73 26.1249 143.679 23.5953 144.966L21.5508 141.498Z" fill="#262127"/>
</g>
</g>
<g id="Group_18">
<path id="Vector_26" d="M75.4967 131.438L56.438 118.322L53.1028 129.129L73.1144 148.958C73.9114 149.748 74.873 150.366 75.9559 150.692C78.4855 151.473 83.3888 150.675 86.1003 144.074L75.4967 131.438Z" fill="#262127"/>
<path id="Vector_27" d="M56.6457 130.734L31.8521 145.773L26.8708 137.67L51.11 118.374C54.1248 116.468 58.1271 118.202 58.7595 121.687C59.132 123.747 58.465 129.687 56.6457 130.743V130.734Z" fill="#262127"/>
</g>
</g>
</g>
<g id="Group_19">
<path id="Vector_28" d="M79.2998 89.2915C79.2998 89.2915 76.2331 87.1284 72.7592 89.4117C70.3076 91.0254 70.3596 93.7122 70.3856 94.8967C70.3942 95.3517 70.5242 95.798 70.7581 96.1843L73.1924 100.021L74.6044 92.107L78.4942 90.9739L79.3085 89.2915H79.2998Z" fill="#262127"/>
<path id="Vector_29" d="M83.753 110.931C85.5549 110.245 86.4558 108.245 85.7628 106.459L82.3669 97.6779L75.835 100.159L79.2309 108.94C79.9239 110.725 81.9424 111.618 83.7443 110.931H83.753Z" fill="#FDC3C6"/>
<g id="Group_20">
<path id="Vector_30" d="M77.9137 105.249C80.374 104.313 81.5782 101.523 80.6166 99.017L77.4459 90.8108L73.1664 91.9439C71.6417 92.5276 70.6281 95.9869 71.2259 97.5406L73.4089 103.18C74.1106 105 76.1291 105.927 77.9224 105.249H77.9137Z" fill="#FDC3C6"/>
<path id="Vector_31" d="M71.9266 99.1629L71.6493 101.618C71.5714 101.936 71.8832 102.202 72.1864 102.09L74.1876 101.326L71.9266 99.1629Z" fill="#FDC3C6"/>
</g>
<path id="Vector_32" d="M71.9367 92.6049C74.7609 90.1499 76.2423 89.4632 76.2423 89.4632C77.0739 88.7593 77.6024 89.2657 78.6419 89.2915C78.6419 89.2915 81.1889 88.3215 83.0081 89.9954C85.9016 92.6478 84.0044 97.18 84.0044 97.18L85.0266 100.957C80.929 101.669 80.1233 99.0771 80.1233 99.0771L78.2088 96.2787L77.3598 93.8066L75.9131 92.2958L74.0678 92.6134C74.0678 92.6134 69.1126 95.0684 71.9454 92.6134L71.9367 92.6049Z" fill="#262127"/>
<path id="Vector_33" d="M78.6593 98.1071C79.0058 99.017 80.0281 99.4805 80.9463 99.1372C81.8646 98.7938 82.3324 97.7809 81.9859 96.871C81.6394 95.9611 80.6171 95.4976 79.6989 95.841C78.7806 96.1843 78.3128 97.1972 78.6593 98.1071Z" fill="#FDC3C6"/>
<path id="Vector_34" d="M73.0962 102.408C74.7855 101.609 76.5701 102.493 76.5701 102.493C77.3671 101.343 77.7049 99.635 77.6616 98.8196C77.6616 98.7337 77.8175 96.7165 77.0292 93.901L78.8918 93.1972L79.039 98.9312L80.5897 100.751C81.1095 101.558 81.0402 102.717 80.6937 103.609C80.3818 104.425 79.888 105.129 79.3596 105.712C78.4673 106.7 77.5317 106.906 76.1976 106.863C73.3388 106.777 73.1049 102.408 73.1049 102.408H73.0962Z" fill="#262127"/>
<g id="Group_21">
<path id="Vector_35" d="M73.4953 99.4634C73.5819 99.6866 73.8331 99.7982 74.0584 99.7123C74.2836 99.6265 74.3962 99.3775 74.3096 99.1544C74.223 98.9312 73.9717 98.8196 73.7465 98.9054C73.5213 98.9913 73.4086 99.2402 73.4953 99.4634Z" fill="#202020"/>
<path id="Vector_36" d="M74.6559 97.6608C74.6559 97.6608 74.604 97.6865 74.578 97.6951L72.6461 98.3303C72.4295 98.399 72.1956 98.2874 72.1263 98.0728C72.057 97.8582 72.1697 97.6264 72.3862 97.5578L74.3181 96.914C74.5347 96.8453 74.7686 96.9569 74.8379 97.1715C74.8985 97.3603 74.8205 97.5578 74.6559 97.6522V97.6608Z" fill="#262127"/>
</g>
<path id="Vector_37" d="M78.4854 93.7637C78.4854 93.7637 76.4062 96.2616 75.2627 95.9526C75.2627 95.9526 74.8382 95.8667 74.6996 95.2058C74.6996 95.2058 72.0487 98.7766 69.909 97.0255C69.909 97.0255 69.3805 96.5878 70.628 96.2273C70.628 96.2273 68.0724 96.4762 66.9722 94.3474C65.872 92.2186 68.1764 90.9139 69.2246 90.8623C70.2728 90.8194 70.2122 91.0769 71.8841 90.3988C73.5561 89.7207 76.4756 86.5189 78.9185 90.0898L78.4767 93.7551L78.4854 93.7637Z" fill="#262127"/>
</g>
<g id="Group_22">
<g id="Group_23">
<path id="Vector_38" d="M83.3871 106.064C83.3871 106.064 87.3895 105.223 89.6852 114.622C92.1801 124.811 86.194 144.898 86.194 144.898C86.194 144.898 74.7241 139.275 73.364 129.962C73.364 129.962 77.7129 117.292 78.5272 110.528C78.5272 110.528 78.8477 105.901 83.3958 106.073L83.3871 106.064Z" fill="#FF7740"/>
<path id="Vector_39" d="M86.3852 116.889L79.2642 126.047L77.8954 124.854L74.2136 127.472L76.9511 118.786L86.3852 116.889Z" fill="#F3652C"/>
</g>
<g id="Group_24">
<g id="Group_25">
<path id="Vector_40" d="M56.9058 112.528L66.1925 128.288C67.6306 129.661 69.935 129.541 71.2171 128.022C72.3693 126.657 72.2653 124.657 70.9919 123.412L59.7126 110.914L56.9058 112.537V112.528Z" fill="#FDC3C6"/>
<g id="Group_26">
<g id="Group_27">
<path id="Vector_41" d="M62.4929 108.639L59.3309 109.721C58.6465 109.961 57.7888 109.566 57.425 108.854L52.8596 99.8839C52.4957 99.1714 52.7556 98.3989 53.4487 98.1585L56.6107 97.077C57.295 96.8452 58.1527 97.2315 58.5165 97.944L63.082 106.914C63.4458 107.627 63.1859 108.399 62.4929 108.639Z" fill="#232322"/>
<path id="Vector_42" d="M54.4973 99.3174L57.7546 98.1757L61.7829 106.047L58.5949 107.446L54.4973 99.3174Z" fill="white"/>
</g>
<path id="Vector_43" d="M54.558 107.043C53.2845 108.657 54.7832 111.644 56.5158 112.717C58.2485 113.79 60.5095 113.223 61.5664 111.472C62.6233 109.712 62.0775 107.421 60.3449 106.356C58.6123 105.283 56.3772 104.725 54.5493 107.051L54.558 107.043Z" fill="#FDC3C6"/>
</g>
</g>
<g id="Group_28">
<path id="Vector_44" d="M81.3858 109.644L66.3121 123.335C64.8394 124.665 64.8221 126.957 66.2688 128.314C67.5683 129.533 69.5954 129.558 70.9295 128.374L84.2273 116.528L81.3858 109.644Z" fill="#FDC3C6"/>
<path id="Vector_45" d="M71.7096 115.979L79.0125 123.781L86.3848 116.88C88.5939 114.811 88.7498 111.378 86.7226 109.12C84.5396 106.682 81.7674 105.472 79.4977 107.824L71.7009 115.97L71.7096 115.979Z" fill="#FF7740"/>
</g>
</g>
</g>
</g>
<g id="Group_29">
<g id="Group_30">
<path id="Vector_46" d="M87.9086 58.3124C79.5314 58.3124 72.7136 51.5569 72.7136 43.2563C72.7136 34.9557 79.5314 28.2002 87.9086 28.2002C96.2857 28.2002 103.104 34.9557 103.104 43.2563C103.104 51.5569 96.2857 58.3124 87.9086 58.3124ZM87.9086 36.0115C83.8716 36.0115 80.597 39.2648 80.597 43.2563C80.597 47.2478 83.8803 50.5011 87.9086 50.5011C91.9369 50.5011 95.2202 47.2478 95.2202 43.2563C95.2202 39.2648 91.9369 36.0115 87.9086 36.0115Z" fill="#FFCD31"/>
<g id="Group_31">
<path id="Vector_47" d="M85.0931 23.11H91.2179C91.833 23.11 92.3354 23.6079 92.3354 24.2173V32.1059H83.9756V24.2173C83.9756 23.6079 84.478 23.11 85.0931 23.11Z" fill="#FFCD31"/>
<path id="Vector_48" d="M83.9756 54.4067H92.3354V62.2953C92.3354 62.9047 91.833 63.4026 91.2179 63.4026H85.0931C84.478 63.4026 83.9756 62.9047 83.9756 62.2953V54.4067Z" fill="#FFCD31"/>
</g>
<g id="Group_32">
<path id="Vector_49" d="M67.8271 46.2864V40.2176C67.8271 39.6082 68.3296 39.1103 68.9447 39.1103H76.906V47.3937H68.9447C68.3296 47.3937 67.8271 46.8958 67.8271 46.2864Z" fill="#FFCD31"/>
<path id="Vector_50" d="M99.4128 47.3937V39.1103H107.374C107.989 39.1103 108.492 39.6082 108.492 40.2176V46.2864C108.492 46.8958 107.989 47.3937 107.374 47.3937H99.4128Z" fill="#FFCD31"/>
</g>
<g id="Group_33">
<path id="Vector_51" d="M71.6159 31.1603L75.9468 26.869C76.3817 26.4381 77.0923 26.4381 77.5272 26.869L83.1567 32.4471L77.2454 38.3043L71.6159 32.7263C71.181 32.2953 71.181 31.5912 71.6159 31.1603Z" fill="#FFCD31"/>
<path id="Vector_52" d="M93.1636 54.0664L99.0749 48.2091L104.704 53.7872C105.139 54.2181 105.139 54.9222 104.704 55.3532L100.374 59.6444C99.9386 60.0754 99.228 60.0754 98.7931 59.6444L93.1636 54.0664Z" fill="#FFCD31"/>
</g>
<g id="Group_34">
<path id="Vector_53" d="M100.368 26.8621L104.699 31.1534C105.134 31.5843 105.134 32.2884 104.699 32.7194L99.0697 38.2974L93.1584 32.4402L98.7879 26.8621C99.2228 26.4312 99.9334 26.4312 100.368 26.8621Z" fill="#FFCD31"/>
<path id="Vector_54" d="M77.2468 48.2083L83.1581 54.0655L77.5286 59.6436C77.0937 60.0745 76.3831 60.0745 75.9482 59.6436L71.6173 55.3523C71.1824 54.9214 71.1824 54.2173 71.6173 53.7863L77.2468 48.2083Z" fill="#FFCD31"/>
</g>
</g>
<g id="Group_35">
<g id="Group_36">
<path id="Vector_55" d="M161.554 139.026V16.2773C161.554 10.569 156.884 5.93372 151.115 5.93372H99.5869C93.8173 5.93372 89.1479 10.569 89.1479 16.2773V140.743C89.1479 146.46 93.8173 151.087 99.5869 151.087H151.115C155.42 151.087 159.111 148.503 160.705 144.82C161.25 143.567 161.554 142.194 161.554 140.743V139.026Z" fill="#3C6ADE"/>
<path id="Vector_56" d="M115.102 13.8395C115.653 13.8395 116.099 13.3975 116.099 12.8523C116.099 12.3071 115.653 11.8652 115.102 11.8652C114.552 11.8652 114.106 12.3071 114.106 12.8523C114.106 13.3975 114.552 13.8395 115.102 13.8395Z" fill="white"/>
<path id="Vector_57" d="M136.76 11.6334H119.434C118.96 11.6334 118.576 12.0139 118.576 12.4832V13.23C118.576 13.6994 118.96 14.0798 119.434 14.0798H136.76C137.234 14.0798 137.618 13.6994 137.618 13.23V12.4832C137.618 12.0139 137.234 11.6334 136.76 11.6334Z" fill="white"/>
<path id="Vector_58" d="M129.319 143.207C129.319 145.378 127.543 147.147 125.343 147.147C123.142 147.147 121.366 145.387 121.366 143.207C121.366 141.026 123.142 139.267 125.343 139.267C127.543 139.267 129.319 141.026 129.319 143.207Z" fill="white"/>
<path id="Vector_59" d="M157.68 18.8781H93.0105V136.357H157.68V18.8781Z" fill="#FFF8F7"/>
</g>
<g id="Group_37">
<g id="Group_38">
<path id="Vector_60" d="M135.339 58.3038C130.626 56.7501 127.36 54.3209 125.714 52.8788C125.004 52.2607 123.956 52.2607 123.245 52.8788C121.599 54.3209 118.333 56.7501 113.621 58.3038C109.307 59.7201 104.776 60.0549 102.341 60.1235C101.337 60.1493 100.548 60.9819 100.583 61.9777C100.773 67.5829 101.9 84.4502 108.414 92.0383C115.804 100.639 124.476 102.159 124.476 102.159C124.476 102.159 133.147 100.639 140.537 92.0383C147.051 84.4588 148.169 67.5829 148.368 61.9777C148.403 60.9819 147.615 60.1493 146.61 60.1235C144.175 60.0549 139.645 59.7201 135.33 58.3038H135.339Z" fill="#73C994"/>
<path id="Vector_61" d="M114.817 78.2527L121.661 85.1798L135.028 69.6688" stroke="white" stroke-width="4.31767" stroke-linecap="round" stroke-linejoin="round"/>
</g>
<g id="Group_39">
<g id="Group_40">
<path id="Vector_62" d="M101.362 25.1186C101.362 26.0542 100.6 26.8096 99.6553 26.8096C98.7111 26.8096 97.9487 26.0542 97.9487 25.1186C97.9487 24.183 98.7111 23.4276 99.6553 23.4276C100.6 23.4276 101.362 24.183 101.362 25.1186Z" fill="#3C6BE0"/>
<path id="Vector_63" d="M105.33 26.8096C106.272 26.8096 107.037 26.0525 107.037 25.1186C107.037 24.1847 106.272 23.4276 105.33 23.4276C104.387 23.4276 103.623 24.1847 103.623 25.1186C103.623 26.0525 104.387 26.8096 105.33 26.8096Z" fill="#FF7740"/>
<path id="Vector_64" d="M112.71 25.1186C112.71 26.0542 111.948 26.8096 111.003 26.8096C110.059 26.8096 109.297 26.0542 109.297 25.1186C109.297 24.183 110.059 23.4276 111.003 23.4276C111.948 23.4276 112.71 24.183 112.71 25.1186Z" stroke="#D5B2B2" stroke-width="0.257515" stroke-miterlimit="10"/>
</g>
<g id="Group_41">
<path id="Vector_65" d="M148.688 127.472H101.397C99.8373 127.472 98.5725 126.219 98.5725 124.674C98.5725 123.129 99.8373 121.876 101.397 121.876H148.688C150.248 121.876 151.512 123.129 151.512 124.674C151.512 126.219 150.248 127.472 148.688 127.472Z" stroke="#D5B2B2" stroke-width="0.394857" stroke-miterlimit="10"/>
<g id="Group_42">
<path id="Vector_66" d="M98.5793 111.704H140.275" stroke="#FFD5D5" stroke-width="3.21894" stroke-miterlimit="10"/>
<path id="Vector_67" d="M98.5793 117.404H119.916" stroke="#FFD5D5" stroke-width="3.21894" stroke-miterlimit="10"/>
</g>
<g id="Group_43">
<path id="Vector_68" d="M98.5803 36.2606H150.091" stroke="#FFD5D5" stroke-width="3.21894" stroke-miterlimit="10"/>
<path id="Vector_69" d="M98.5803 41.9688H129.317" stroke="#FFD5D5" stroke-width="3.21894" stroke-miterlimit="10"/>
</g>
</g>
</g>
</g>
</g>
</g>
<g id="Group_44">
<g id="Group_45">
<path id="Vector_70" d="M176.248 41.5567C176.248 41.5567 170.513 41.0588 168.399 46.6469C165.991 53.0419 165.003 59.4454 165.003 59.4454L181.853 60.3382C181.853 60.3382 184.331 54.8702 183.308 47.5911C182.503 41.8915 176.257 41.5653 176.257 41.5653L176.248 41.5567Z" fill="#262127"/>
<g id="Group_46">
<g id="Group_47">
<path id="Vector_71" d="M178.11 54.6213L176.637 60.9991C176.3 62.4498 174.835 63.3511 173.371 63.0164C171.907 62.6816 170.998 61.2309 171.336 59.7802L172.765 53.5999C173.094 52.1835 174.255 52.5011 175.719 52.8445C177.183 53.1793 178.448 53.2136 178.119 54.6213H178.11Z" fill="#FDC3C6"/>
<path id="Vector_72" d="M172.417 51.5655C172.417 51.5655 172.227 57.8317 177.156 58.8446L177.884 55.6085L172.417 51.5655Z" fill="#262127"/>
</g>
<path id="Vector_73" d="M176.88 57.5656C179.791 57.7888 181.731 56.3381 182.329 53.3852L182.909 48.647C183.074 46.5782 180.908 44.2091 179.635 44.1147L174.87 45.016C173.605 44.9216 172.488 45.84 172.392 47.0589L172.011 51.8659C171.786 54.6728 174.428 57.3767 176.88 57.5656Z" fill="#FDC3C6"/>
<g id="Group_48">
<path id="Vector_74" d="M177.772 51.2822C177.737 51.5054 177.52 51.6513 177.295 51.6255C177.07 51.5912 176.905 51.3852 176.94 51.162C176.975 50.9388 177.191 50.7929 177.416 50.8186C177.642 50.8444 177.806 51.059 177.772 51.2822Z" fill="#262127"/>
<path id="Vector_75" d="M181.609 51.5483C181.575 51.7715 181.358 51.9174 181.133 51.8917C180.908 51.8573 180.743 51.6513 180.778 51.4281C180.812 51.205 181.029 51.059 181.254 51.0848C181.479 51.1191 181.644 51.3251 181.609 51.5483Z" fill="#262127"/>
<path id="Vector_76" d="M179.859 52.0118L179.876 53.1792C179.876 53.1792 179.755 53.7886 178.872 53.4796" stroke="#AF7079" stroke-width="0.386273" stroke-linecap="round" stroke-linejoin="round"/>
<path id="Vector_77" d="M176.498 49.9689C176.498 49.9689 176.55 49.9774 176.576 49.9774L178.473 50.0461C178.681 50.0461 178.863 49.8916 178.871 49.6856C178.871 49.4796 178.715 49.3079 178.499 49.2993L176.602 49.2307C176.394 49.2307 176.212 49.3852 176.203 49.5912C176.203 49.7714 176.324 49.9259 176.498 49.9689Z" fill="#262127"/>
<path id="Vector_78" d="M181.063 50.2178C181.063 50.2178 181.115 50.2264 181.141 50.2264L182.302 50.2693C182.519 50.2693 182.692 50.1148 182.701 49.9088C182.701 49.7028 182.545 49.5311 182.328 49.5225L181.167 49.4796C180.951 49.4796 180.777 49.6341 180.769 49.8401C180.769 50.0204 180.89 50.1749 181.063 50.2178Z" fill="#262127"/>
<path id="Vector_79" d="M180.699 54.2608C180.699 54.2608 179.088 55.5912 176.957 53.9689" stroke="#AF7079" stroke-width="0.386273" stroke-linecap="round" stroke-linejoin="round"/>
</g>
<path id="Vector_80" d="M184.763 49.0075C184.763 49.0075 183.776 44.1147 179.236 42.3207C175.45 40.8271 172.401 44.2778 172.401 44.2778C172.401 44.2778 172.739 44.6469 173.285 45.1448L170.755 45.6426L172.618 51.1191C174.957 49.6427 176.092 48.4066 176.577 47.4109C176.793 47.5053 177.01 47.5911 177.226 47.6684C180.042 48.5783 184.763 49.0161 184.763 49.0161V49.0075Z" fill="#262127"/>
<path id="Vector_81" d="M170.287 50.9046C170.209 51.8745 170.963 52.7157 171.959 52.793C172.956 52.8703 173.83 52.1492 173.908 51.1878C173.986 50.2178 173.233 49.3766 172.236 49.2994C171.24 49.2221 170.365 49.9432 170.287 50.9046Z" fill="#FDC3C6"/>
<g id="Group_49">
<path id="Vector_82" d="M171.214 52.6985C171.188 53.0076 171.422 53.2737 171.743 53.2994C172.054 53.3252 172.323 53.0934 172.349 52.7758C172.375 52.4668 172.141 52.2007 171.821 52.1749C171.509 52.1492 171.24 52.3809 171.214 52.6985Z" fill="#FFCD31"/>
<path id="Vector_83" d="M171.137 53.8316C171.102 54.3123 171.327 54.7243 171.639 54.7415C171.951 54.7673 172.228 54.3896 172.271 53.9089C172.306 53.4282 172.081 53.0162 171.769 52.999C171.457 52.9732 171.18 53.3509 171.137 53.8316Z" fill="#FFCD31"/>
</g>
</g>
<path id="Vector_84" d="M174.985 48.5697L173.729 51.514L173.183 48.8358L174.985 48.5697Z" fill="#262127"/>
</g>
<g id="Group_50">
<g id="Group_51">
<g id="Group_52">
<path id="Vector_85" d="M167.626 142.889L163.823 139.704L171.836 128.056L175.639 131.232L167.626 142.889Z" fill="#FDC3C6"/>
<g id="Group_53">
<path id="Vector_86" d="M164.394 139.026L169.314 143.138L171.463 147.842C171.922 148.932 171.731 150.194 170.96 151.095L161.119 142.88L164.394 139.035V139.026Z" fill="#262127"/>
<path id="Vector_87" d="M169.565 143.653L169.721 141.241C169.721 141.241 168.257 139.481 166.819 141.473L169.565 143.653Z" fill="#262127"/>
</g>
</g>
<g id="Group_54">
<path id="Vector_88" d="M179.739 81.8579L188.774 113.009C189.285 114.76 188.947 116.657 187.865 118.133L171.673 140.177C171.673 140.177 162.724 133.37 163.002 133.43C163.279 133.49 171.751 117.962 171.751 117.962L172.895 82.0639L179.73 81.8579H179.739Z" fill="#FF7740"/>
<path id="Vector_89" d="M178.319 93.6177L180.493 92.7422L180.276 121.927L178.319 93.6177Z" fill="#F3652C"/>
<path id="Vector_90" d="M168.858 123.215L171.674 140.168L165.913 135.756L168.858 123.215Z" fill="#F3652C"/>
</g>
</g>
<g id="Group_55">
<g id="Group_56">
<path id="Vector_91" d="M179.661 146.906L174.68 146.889L173.294 132.854L178.266 132.872L179.661 146.906Z" fill="#FDC3C6"/>
<g id="Group_57">
<path id="Vector_92" d="M174.687 145.996L181.124 146.022L185.819 148.263C186.876 148.812 187.543 149.893 187.543 151.078L174.678 151.027L174.696 145.996H174.687Z" fill="#262127"/>
<path id="Vector_93" d="M181.643 146.262L180.205 144.314C180.205 144.314 177.943 143.893 178.125 146.34L181.643 146.262Z" fill="#262127"/>
</g>
</g>
<path id="Vector_94" d="M166.459 82.2441C166.459 82.2441 161.928 87.4116 164.466 96.6822L171.683 140.168L181.922 139.867L177.417 81.9351L166.459 82.2527V82.2441Z" fill="#FF7740"/>
<g id="Group_58">
<path id="Vector_95" d="M169.508 86.3815C169.508 86.3815 170.244 89.8494 167.047 91.1799" stroke="#F3652C" stroke-width="0.386273" stroke-miterlimit="10"/>
<path id="Vector_96" d="M165.106 84.4845L180.327 83.875" stroke="#F3652C" stroke-width="0.386273" stroke-miterlimit="10"/>
<path id="Vector_97" d="M171.923 84.124C171.803 84.227 171.863 82.0896 171.863 82.0896" stroke="#F3652C" stroke-width="0.386273" stroke-miterlimit="10"/>
</g>
</g>
</g>
<g id="Group_59">
<g id="Group_60">
<g id="Group_61">
<g id="Group_62">
<path id="Vector_98" d="M191.562 66.8103L188.573 68.467L190.54 71.7804L195.261 69.3168L191.562 66.8103Z" fill="#FDC3C6"/>
<path id="Vector_99" d="M190.965 67.5829C191.441 69.334 193.252 70.3726 195.019 69.9005C196.786 69.4284 197.834 67.6344 197.358 65.8833C196.881 64.1322 195.071 63.0935 193.304 63.5656C191.536 64.0377 190.488 65.8318 190.965 67.5829Z" fill="#FDC3C6"/>
</g>
<path id="Vector_100" d="M175.519 73.6173L188.894 66.8876L192.204 72.5872L178.273 79.4629C176.35 80.3385 174.115 79.1882 173.717 77.1281C173.439 75.686 174.184 74.2439 175.527 73.6087L175.519 73.6173Z" fill="#DBAF37"/>
</g>
<g id="Group_63">
<path id="Vector_101" d="M190.939 66.9048L194.04 67.8662C194.716 68.0722 195.53 67.6773 195.868 66.9649L200.044 58.1235C200.373 57.4196 200.096 56.6728 199.42 56.4668L196.319 55.5054C195.643 55.2994 194.829 55.6943 194.491 56.4067L190.315 65.2481C189.986 65.952 190.263 66.6988 190.939 66.9048Z" fill="#232322"/>
<path id="Vector_102" d="M198.432 57.6171L195.236 56.6042L191.554 64.3725L194.681 65.6344L198.432 57.6171Z" fill="white"/>
</g>
</g>
<g id="Group_64">
<path id="Vector_103" d="M164.137 63.0421C164.137 63.0421 161.2 67.6687 157.908 79.8664C157.605 80.9995 157.614 82.2012 158.298 83.154C159.84 85.3085 163.158 85.0081 164.284 82.6046C165.852 79.2569 169.534 68.2954 169.499 68.2009C169.447 68.0207 164.137 63.0421 164.137 63.0421Z" fill="#FFCD31"/>
<g id="Group_65">
<g id="Group_66">
<path id="Vector_104" d="M165.869 98.0126L165.168 94.6821L161.391 95.5576L162.058 98.665L165.869 98.0126Z" fill="#FDC3C6"/>
<path id="Vector_105" d="M164.899 96.9483C163.071 96.871 161.529 98.2788 161.451 100.09C161.373 101.901 162.794 103.429 164.622 103.506C166.45 103.584 167.992 102.176 168.07 100.365C168.148 98.5534 166.727 97.0255 164.899 96.9483Z" fill="#FDC3C6"/>
</g>
<path id="Vector_106" d="M164.232 80.6217L166.58 95.3001L160.091 96.6649L157.778 81.42C157.527 79.3427 159.32 77.583 161.416 77.8405C162.889 78.0208 164.05 79.171 164.241 80.6217H164.232Z" fill="#FFCD31"/>
</g>
</g>
<g id="Group_67">
<path id="Vector_107" d="M166.622 61.3854L173.25 60.1579L179.037 60.9905C181.107 61.2909 182.588 63.1365 182.415 65.2052L179.738 81.8578L166.449 82.2527L163.486 67.3855C163.218 66.1322 163.33 64.8275 163.824 63.6429C164.309 62.4669 165.358 61.6257 166.614 61.3854H166.622Z" fill="#FFCD31"/>
<path id="Vector_108" d="M178.396 60.896L173.25 60.1492L168.529 61.0248C168.529 61.0248 170.435 65.3768 175.537 64.9476C179.938 64.5785 178.388 60.8874 178.388 60.8874L178.396 60.896Z" fill="#FDC3C6"/>
<path id="Vector_109" d="M165.791 78.8964C165.973 78.4157 168.815 70.3383 168.815 70.3383L169.17 82.184L166.45 82.2526L165.782 78.8964H165.791Z" fill="#DBAF37"/>
<path id="Vector_110" d="M180.493 63.6257C180.493 63.6257 186.583 69.9949 181.116 73.3255C176.889 75.9006 176.967 69.2653 176.967 69.2653L180.493 63.6343V63.6257Z" fill="#FFCD31"/>
</g>
</g>
</g>
</g>
<defs>
<clipPath id="clip0_63_9336">
<rect width="229.25" height="160.475" fill="white" transform="translate(0.700684 0.380005)"/>
</clipPath>
</defs>
</svg>
