<svg width="28" height="28" viewBox="0 0 28 28" fill="none" xmlns="http://www.w3.org/2000/svg">
<g id="Group">
<path id="Vector" d="M18.648 0.444336C20.6899 0.444336 22.3451 2.09957 22.3451 4.1414C22.3451 4.82201 21.7933 5.37376 21.1127 5.37376C20.4321 5.37376 19.8803 4.82201 19.8803 4.1414C19.8803 3.4608 19.3286 2.90905 18.648 2.90905H3.85972C3.17912 2.90905 2.62737 3.4608 2.62737 4.1414V23.8591C2.62737 24.5397 3.17912 25.0914 3.85972 25.0914H18.648C19.3286 25.0914 19.8803 24.5397 19.8803 23.8591V22.6267C19.8803 21.9461 20.4321 21.3944 21.1127 21.3944C21.7933 21.3944 22.3451 21.9461 22.3451 22.6267V23.8591C22.3451 25.901 20.6899 27.5562 18.648 27.5562H3.85972C1.8179 27.5562 0.162659 25.901 0.162659 23.8591V4.1414C0.162659 2.09957 1.8179 0.444336 3.85972 0.444336H18.648Z" fill="#D009BC"/>
<path id="Vector_2" fill-rule="evenodd" clip-rule="evenodd" d="M24.5622 9.31898C24.1927 8.94949 23.5937 8.94949 23.2241 9.31898L13.6158 18.9275C13.4341 19.109 13.3137 19.3429 13.2716 19.5962L13.0688 20.8123L14.2849 20.6096C14.5383 20.5675 14.7722 20.4471 14.9537 20.2655L24.5622 10.6571C24.9317 10.2876 24.9317 9.68848 24.5622 9.31898ZM21.4813 7.57618C22.8133 6.24415 24.973 6.24414 26.3051 7.57616C27.637 8.9082 27.637 11.0678 26.3051 12.3999L16.6967 22.0083C16.1517 22.5532 15.4502 22.9141 14.6901 23.0408L13.474 23.2435C11.8059 23.5215 10.3596 22.0754 10.6377 20.4071L10.8404 19.1911C10.967 18.4309 11.328 17.7295 11.8728 17.1845L21.4813 7.57618Z" fill="#D009BC"/>
<path id="Vector_3" d="M5.0921 7.83782C5.0921 7.15722 5.64385 6.60547 6.32446 6.60547H16.1833C16.8639 6.60547 17.4157 7.15722 17.4157 7.83782C17.4157 8.51843 16.8639 9.07018 16.1833 9.07018H6.32446C5.64385 9.07018 5.0921 8.51843 5.0921 7.83782Z" fill="#D009BC"/>
<path id="Vector_4" d="M5.09204 12.7675C5.09204 12.0869 5.64379 11.5352 6.3244 11.5352H11.2538C11.9344 11.5352 12.4862 12.0869 12.4862 12.7675C12.4862 13.4481 11.9344 13.9999 11.2538 13.9999H6.3244C5.64379 13.9999 5.09204 13.4481 5.09204 12.7675Z" fill="#D009BC"/>
<path id="Vector_5" d="M5.09204 17.6982C5.09204 17.0175 5.64379 16.4658 6.3244 16.4658H7.55675C8.23736 16.4658 8.78911 17.0175 8.78911 17.6982C8.78911 18.3788 8.23736 18.9305 7.55675 18.9305H6.3244C5.64379 18.9305 5.09204 18.3788 5.09204 17.6982Z" fill="#D009BC"/>
</g>
</svg>
