<svg width="25" height="14" viewBox="0 0 25 14" fill="none" xmlns="http://www.w3.org/2000/svg">
<path fill-rule="evenodd" clip-rule="evenodd" d="M2 0C0.895431 0 0 0.89543 0 2V12C0 13.1046 0.89543 14 2 14H23C24.1046 14 25 13.1046 25 12V2C25 0.895431 24.1046 0 23 0H2ZM8.69043 3.9541L6.12695 11H7.27441L7.92383 9.0957H10.6387L11.2832 11H12.4307L9.87207 3.9541H8.69043ZM8.2168 8.2168L9.27148 5.12109H9.29102L10.3408 8.2168H8.2168ZM12.7188 8.43164C12.7188 10.0674 13.5586 11.1025 14.8672 11.1025C15.6045 11.1025 16.1709 10.7314 16.4785 10.1309H16.498V11H17.5576V3.9541H16.498V6.7373H16.4785C16.1709 6.13184 15.585 5.76562 14.8574 5.76562C13.5684 5.76562 12.7188 6.79102 12.7188 8.42676V8.43164ZM16.5029 8.43164C16.5029 9.50098 15.9414 10.1943 15.1455 10.1943C14.3105 10.1943 13.7979 9.52539 13.7979 8.43164V8.42676C13.7979 7.34277 14.3154 6.66895 15.1455 6.66895C15.9365 6.66895 16.5029 7.3623 16.5029 8.42676V8.43164Z" fill="#005FEE"/>
</svg>
